<svg xmlns="http://www.w3.org/2000/svg" xmlns:xlink="http://www.w3.org/1999/xlink" width="500" zoomAndPan="magnify" viewBox="0 0 375 374.999991" height="500" preserveAspectRatio="xMidYMid meet" version="1.0"><defs><g/><clipPath id="c5b3526d7e"><path d="M 37.5 139.070312 L 134.359375 139.070312 L 134.359375 235.929688 L 37.5 235.929688 Z M 37.5 139.070312 " clip-rule="nonzero"/></clipPath><clipPath id="afd571c4d3"><path d="M 85.929688 139.070312 C 59.183594 139.070312 37.5 160.753906 37.5 187.5 C 37.5 214.246094 59.183594 235.929688 85.929688 235.929688 C 112.675781 235.929688 134.359375 214.246094 134.359375 187.5 C 134.359375 160.753906 112.675781 139.070312 85.929688 139.070312 " clip-rule="nonzero"/></clipPath><clipPath id="04703b9c11"><path d="M 50.070312 157.199219 L 121.792969 157.199219 L 121.792969 217.769531 L 50.070312 217.769531 Z M 50.070312 157.199219 " clip-rule="nonzero"/></clipPath></defs><g clip-path="url(#c5b3526d7e)"><g clip-path="url(#afd571c4d3)"><path fill="#fb8500" d="M 37.5 139.070312 L 134.359375 139.070312 L 134.359375 235.929688 L 37.5 235.929688 Z M 37.5 139.070312 " fill-opacity="1" fill-rule="nonzero"/></g></g><g clip-path="url(#04703b9c11)"><path fill="#000000" d="M 121.25 172.773438 C 121.152344 171.089844 121.773438 169.203125 120.652344 167.738281 C 118.6875 167.199219 116.730469 166.652344 114.761719 166.167969 C 114.660156 163.730469 114.851562 161.285156 114.671875 158.855469 C 114.390625 157.195312 112.371094 157.773438 111.199219 157.761719 C 101.039062 158.269531 91.683594 164.015625 85.710938 172.085938 C 79.285156 163.339844 68.753906 157.3125 57.730469 157.761719 C 57.511719 157.949219 57.066406 158.320312 56.839844 158.507812 C 56.503906 161.035156 56.820312 163.613281 56.6875 166.160156 C 54.453125 167.0625 51.152344 166.921875 50.089844 169.496094 C 50.507812 170.511719 50.605469 171.609375 50.558594 172.703125 C 50.464844 185.605469 50.648438 198.503906 50.46875 211.402344 C 50.300781 212.375 50.480469 214.089844 51.878906 213.789062 C 56.390625 212.148438 61.25 211.558594 66.039062 211.835938 C 72.546875 212.339844 79.304688 213.867188 84.652344 217.765625 C 85.171875 217.765625 86.210938 217.765625 86.722656 217.769531 C 89.683594 215.5 93.277344 214.265625 96.824219 213.242188 C 104.425781 211.113281 112.628906 211.3125 120.101562 213.867188 C 121.699219 213.597656 121.265625 211.847656 121.28125 210.6875 C 121.210938 198.054688 121.269531 185.414062 121.25 172.773438 Z M 53.277344 210.296875 C 53.316406 196.972656 53.269531 183.644531 53.296875 170.324219 C 54.433594 169.917969 55.582031 169.511719 56.726562 169.113281 C 56.699219 179.753906 56.707031 190.394531 56.71875 201.03125 C 56.570312 202.96875 58.992188 202.628906 60.253906 202.75 C 67.785156 203.066406 74.640625 206.894531 80.109375 211.863281 C 71.664062 208.457031 62.046875 207.683594 53.277344 210.296875 Z M 90.039062 212.546875 C 94.21875 208.460938 99.03125 204.796875 104.753906 203.21875 C 107.703125 202.222656 110.824219 202.125 113.886719 201.835938 C 114.878906 201.714844 114.671875 200.480469 114.742188 199.785156 C 114.738281 189.609375 114.730469 179.433594 114.738281 169.253906 C 115.964844 169.628906 117.195312 170 118.429688 170.363281 C 118.605469 183.683594 118.4375 197.011719 118.515625 210.332031 C 109.152344 207.742188 98.921875 208.667969 90.039062 212.546875 Z M 90.039062 212.546875 " fill-opacity="1" fill-rule="nonzero"/></g><g fill="#000000" fill-opacity="1"><g transform="translate(144.035533, 206.624986)"><g><path d="M 3.894531 -39.410156 L 3.894531 0 L 24.785156 0 L 24.785156 -6.265625 L 11.800781 -6.265625 L 11.800781 -39.410156 Z M 3.894531 -39.410156 "/></g></g></g><g fill="#000000" fill-opacity="1"><g transform="translate(169.945734, 206.624986)"><g><path d="M 3.894531 0 L 11.800781 0 L 11.800781 -31.277344 L 3.894531 -31.277344 Z M 7.90625 -35.003906 C 10.671875 -35.003906 12.761719 -37.039062 12.761719 -39.636719 C 12.761719 -42.230469 10.671875 -44.265625 7.90625 -44.265625 C 5.082031 -44.265625 3.050781 -42.230469 3.050781 -39.636719 C 3.050781 -37.039062 5.082031 -35.003906 7.90625 -35.003906 Z M 7.90625 -35.003906 "/></g></g></g><g fill="#000000" fill-opacity="1"><g transform="translate(185.638615, 206.624986)"><g><path d="M 11.800781 -26.707031 L 11.800781 -41.78125 L 3.894531 -41.78125 L 3.894531 0 L 11.800781 0 L 11.800781 -4.460938 C 13.71875 -1.75 17.21875 0.507812 22.132812 0.507812 C 30.148438 0.507812 36.417969 -5.984375 36.417969 -15.753906 C 36.417969 -25.519531 30.148438 -31.785156 22.132812 -31.785156 C 17.390625 -31.785156 13.71875 -29.585938 11.800781 -26.707031 Z M 28.34375 -15.753906 C 28.34375 -9.824219 24.335938 -6.4375 20.042969 -6.4375 C 15.808594 -6.4375 11.800781 -9.710938 11.800781 -15.640625 C 11.800781 -21.566406 15.808594 -24.84375 20.042969 -24.84375 C 24.335938 -24.84375 28.34375 -21.679688 28.34375 -15.753906 Z M 28.34375 -15.753906 "/></g></g></g><g fill="#000000" fill-opacity="1"><g transform="translate(223.911192, 206.624986)"><g><path d="M 11.800781 -15.582031 C 11.800781 -21.625 14.625 -23.429688 19.308594 -23.429688 L 21.398438 -23.429688 L 21.398438 -31.730469 C 17.050781 -31.730469 13.777344 -29.640625 11.800781 -26.421875 L 11.800781 -31.277344 L 3.894531 -31.277344 L 3.894531 0 L 11.800781 0 Z M 11.800781 -15.582031 "/></g></g></g><g fill="#000000" fill-opacity="1"><g transform="translate(246.716679, 206.624986)"><g><path d="M 3.894531 0 L 11.800781 0 L 11.800781 -31.277344 L 3.894531 -31.277344 Z M 7.90625 -35.003906 C 10.671875 -35.003906 12.761719 -37.039062 12.761719 -39.636719 C 12.761719 -42.230469 10.671875 -44.265625 7.90625 -44.265625 C 5.082031 -44.265625 3.050781 -42.230469 3.050781 -39.636719 C 3.050781 -37.039062 5.082031 -35.003906 7.90625 -35.003906 Z M 7.90625 -35.003906 "/></g></g></g><g fill="#000000" fill-opacity="1"><g transform="translate(262.40956, 206.624986)"><g><path d="M 4.742188 0 L 12.761719 0 L 12.761719 -24.785156 L 18.238281 -24.785156 L 18.238281 -31.277344 L 12.761719 -31.277344 L 12.761719 -32.578125 C 12.761719 -36.078125 14.058594 -37.320312 17.898438 -37.207031 L 17.898438 -43.871094 C 9.089844 -44.09375 4.742188 -40.539062 4.742188 -32.859375 L 4.742188 -31.277344 L 1.1875 -31.277344 L 1.1875 -24.785156 L 4.742188 -24.785156 Z M 4.742188 0 "/></g></g></g><g fill="#000000" fill-opacity="1"><g transform="translate(281.884542, 206.624986)"><g><path d="M 17.21875 -9.429688 L 9.148438 -31.277344 L 0.28125 -31.277344 L 12.816406 -0.789062 L 6.042969 14.792969 L 14.453125 14.792969 L 33.820312 -31.277344 L 25.40625 -31.277344 Z M 17.21875 -9.429688 "/></g></g></g><g fill="#000000" fill-opacity="1"><g transform="translate(316.03633, 206.624986)"><g><path d="M 12.195312 -4.234375 C 12.195312 -6.832031 10.164062 -8.863281 7.394531 -8.863281 C 4.515625 -8.863281 2.484375 -6.832031 2.484375 -4.234375 C 2.484375 -1.636719 4.515625 0.394531 7.394531 0.394531 C 10.164062 0.394531 12.195312 -1.636719 12.195312 -4.234375 Z M 12.195312 -4.234375 "/></g></g></g></svg>