<svg xmlns="http://www.w3.org/2000/svg" xmlns:xlink="http://www.w3.org/1999/xlink" width="48" zoomAndPan="magnify" viewBox="0 0 36 36.000001" height="48" preserveAspectRatio="xMidYMid meet" version="1.0"><defs><clipPath id="f81bcd4fe9"><path d="M 2.484375 1.996094 L 33.515625 1.996094 L 33.515625 33.03125 L 2.484375 33.03125 Z M 2.484375 1.996094 " clip-rule="nonzero"/></clipPath><clipPath id="972a0dbf11"><path d="M 18 1.996094 C 9.429688 1.996094 2.484375 8.945312 2.484375 17.511719 C 2.484375 26.082031 9.429688 33.03125 18 33.03125 C 26.570312 33.03125 33.515625 26.082031 33.515625 17.511719 C 33.515625 8.945312 26.570312 1.996094 18 1.996094 " clip-rule="nonzero"/></clipPath><clipPath id="afa5a265fc"><path d="M 6.511719 7.941406 L 29.347656 7.941406 L 29.347656 27.210938 L 6.511719 27.210938 Z M 6.511719 7.941406 " clip-rule="nonzero"/></clipPath></defs><g clip-path="url(#f81bcd4fe9)"><g clip-path="url(#972a0dbf11)"><path fill="#fb8500" d="M 2.484375 1.996094 L 33.515625 1.996094 L 33.515625 33.03125 L 2.484375 33.03125 Z M 2.484375 1.996094 " fill-opacity="1" fill-rule="nonzero"/></g></g><g clip-path="url(#afa5a265fc)"><path fill="#ffffff" d="M 29.316406 12.796875 C 29.285156 12.253906 29.484375 11.652344 29.125 11.183594 C 28.496094 11.007812 27.867188 10.835938 27.238281 10.679688 C 27.203125 9.898438 27.265625 9.117188 27.207031 8.335938 C 27.117188 7.804688 26.46875 7.988281 26.09375 7.984375 C 22.839844 8.148438 19.84375 9.988281 17.929688 12.574219 C 15.871094 9.773438 12.496094 7.839844 8.964844 7.984375 C 8.894531 8.046875 8.753906 8.164062 8.679688 8.226562 C 8.574219 9.035156 8.675781 9.859375 8.632812 10.675781 C 7.914062 10.964844 6.859375 10.921875 6.519531 11.746094 C 6.652344 12.070312 6.683594 12.421875 6.667969 12.773438 C 6.636719 16.90625 6.695312 21.039062 6.640625 25.171875 C 6.585938 25.480469 6.644531 26.03125 7.089844 25.9375 C 8.535156 25.410156 10.09375 25.222656 11.628906 25.308594 C 13.710938 25.472656 15.878906 25.960938 17.589844 27.210938 C 17.757812 27.210938 18.089844 27.210938 18.253906 27.210938 C 19.203125 26.484375 20.355469 26.089844 21.488281 25.761719 C 23.925781 25.078125 26.554688 25.140625 28.949219 25.960938 C 29.460938 25.875 29.320312 25.3125 29.324219 24.941406 C 29.304688 20.894531 29.324219 16.84375 29.316406 12.796875 Z M 7.539062 24.816406 C 7.550781 20.546875 7.535156 16.277344 7.542969 12.011719 C 7.910156 11.878906 8.277344 11.75 8.644531 11.625 C 8.636719 15.03125 8.636719 18.441406 8.640625 21.847656 C 8.59375 22.46875 9.371094 22.359375 9.773438 22.398438 C 12.1875 22.5 14.382812 23.726562 16.136719 25.320312 C 13.429688 24.226562 10.347656 23.980469 7.539062 24.816406 Z M 19.316406 25.539062 C 20.65625 24.230469 22.199219 23.054688 24.03125 22.550781 C 24.976562 22.230469 25.976562 22.199219 26.957031 22.105469 C 27.273438 22.066406 27.207031 21.671875 27.230469 21.449219 C 27.230469 18.1875 27.226562 14.929688 27.230469 11.667969 C 27.621094 11.789062 28.015625 11.90625 28.414062 12.023438 C 28.46875 16.289062 28.414062 20.5625 28.441406 24.828125 C 25.4375 24 22.164062 24.296875 19.316406 25.539062 Z M 19.316406 25.539062 " fill-opacity="1" fill-rule="nonzero"/></g></svg>