<svg xmlns="http://www.w3.org/2000/svg" xmlns:xlink="http://www.w3.org/1999/xlink" width="500" zoomAndPan="magnify" viewBox="0 0 375 374.999991" height="500" preserveAspectRatio="xMidYMid meet" version="1.0"><defs><clipPath id="0b3205b385"><path d="M 21.386719 21.386719 L 353.613281 21.386719 L 353.613281 353.613281 L 21.386719 353.613281 Z M 21.386719 21.386719 " clip-rule="nonzero"/></clipPath><clipPath id="ad5ffeeeb1"><path d="M 187.5 21.386719 C 95.757812 21.386719 21.386719 95.757812 21.386719 187.5 C 21.386719 279.242188 95.757812 353.613281 187.5 353.613281 C 279.242188 353.613281 353.613281 279.242188 353.613281 187.5 C 353.613281 95.757812 279.242188 21.386719 187.5 21.386719 " clip-rule="nonzero"/></clipPath><clipPath id="6a755012c5"><path d="M 64.507812 85 L 309 85 L 309 291.320312 L 64.507812 291.320312 Z M 64.507812 85 " clip-rule="nonzero"/></clipPath></defs><g clip-path="url(#0b3205b385)"><g clip-path="url(#ad5ffeeeb1)"><path fill="#fb8500" d="M 21.386719 21.386719 L 353.613281 21.386719 L 353.613281 353.613281 L 21.386719 353.613281 Z M 21.386719 21.386719 " fill-opacity="1" fill-rule="nonzero"/></g></g><g clip-path="url(#6a755012c5)"><path fill="#000000" d="M 308.648438 136.992188 C 308.316406 131.210938 310.4375 124.75 306.59375 119.71875 C 299.863281 117.867188 293.152344 115.992188 286.398438 114.335938 C 286.042969 105.976562 286.703125 97.589844 286.089844 89.25 C 285.117188 83.558594 278.1875 85.542969 274.167969 85.5 C 239.332031 87.242188 207.230469 106.941406 186.742188 134.628906 C 164.707031 104.628906 128.59375 83.953125 90.773438 85.496094 C 90.023438 86.136719 88.5 87.414062 87.726562 88.054688 C 86.578125 96.726562 87.660156 105.574219 87.195312 114.308594 C 79.539062 117.398438 68.214844 116.914062 64.570312 125.742188 C 66.007812 129.226562 66.339844 133 66.183594 136.75 C 65.851562 181.007812 66.492188 225.246094 65.871094 269.484375 C 65.296875 272.8125 65.914062 278.707031 70.707031 277.671875 C 86.183594 272.042969 102.847656 270.015625 119.273438 270.964844 C 141.59375 272.707031 164.773438 277.9375 183.117188 291.304688 C 184.90625 291.304688 188.460938 291.304688 190.226562 291.328125 C 200.378906 283.539062 212.699219 279.304688 224.863281 275.796875 C 250.933594 268.492188 279.082031 269.175781 304.710938 277.933594 C 310.183594 277.007812 308.707031 271.007812 308.753906 267.035156 C 308.519531 223.703125 308.71875 180.347656 308.648438 136.992188 Z M 75.5 265.6875 C 75.632812 219.992188 75.476562 174.277344 75.566406 128.585938 C 79.472656 127.195312 83.402344 125.808594 87.332031 124.4375 C 87.246094 160.929688 87.265625 197.425781 87.3125 233.917969 C 86.804688 240.558594 95.105469 239.386719 99.433594 239.804688 C 125.261719 240.886719 148.773438 254.015625 167.539062 271.070312 C 138.570312 259.378906 105.589844 256.730469 75.5 265.6875 Z M 201.597656 273.410156 C 215.925781 259.398438 232.441406 246.824219 252.066406 241.417969 C 262.179688 237.996094 272.882812 237.667969 283.394531 236.671875 C 286.792969 236.253906 286.085938 232.019531 286.328125 229.636719 C 286.308594 194.730469 286.285156 159.828125 286.308594 124.921875 C 290.523438 126.199219 294.742188 127.480469 298.976562 128.714844 C 299.574219 174.410156 299 220.125 299.265625 265.816406 C 267.144531 256.929688 232.066406 260.105469 201.597656 273.410156 Z M 201.597656 273.410156 " fill-opacity="1" fill-rule="nonzero"/></g></svg>