<svg xmlns="http://www.w3.org/2000/svg" xmlns:xlink="http://www.w3.org/1999/xlink" width="48" zoomAndPan="magnify" viewBox="0 0 36 36.000001" height="48" preserveAspectRatio="xMidYMid meet" version="1.0"><defs><clipPath id="485660d322"><path d="M 6.398438 5.914062 L 29.671875 5.914062 L 29.671875 29.1875 L 6.398438 29.1875 Z M 6.398438 5.914062 " clip-rule="nonzero"/></clipPath><clipPath id="8f5e70add7"><path d="M 18.035156 5.914062 C 11.609375 5.914062 6.398438 11.125 6.398438 17.550781 C 6.398438 23.976562 11.609375 29.1875 18.035156 29.1875 C 24.464844 29.1875 29.671875 23.976562 29.671875 17.550781 C 29.671875 11.125 24.464844 5.914062 18.035156 5.914062 " clip-rule="nonzero"/></clipPath><clipPath id="7fb52f4bb2"><path d="M 9.421875 10.371094 L 26.546875 10.371094 L 26.546875 24.824219 L 9.421875 24.824219 Z M 9.421875 10.371094 " clip-rule="nonzero"/></clipPath></defs><g clip-path="url(#485660d322)"><g clip-path="url(#8f5e70add7)"><path fill="#fb8500" d="M 6.398438 5.914062 L 29.671875 5.914062 L 29.671875 29.1875 L 6.398438 29.1875 Z M 6.398438 5.914062 " fill-opacity="1" fill-rule="nonzero"/></g></g><g clip-path="url(#7fb52f4bb2)"><path fill="#ffffff" d="M 26.523438 14.011719 C 26.5 13.605469 26.648438 13.152344 26.378906 12.800781 C 25.90625 12.671875 25.4375 12.539062 24.964844 12.425781 C 24.941406 11.839844 24.984375 11.25 24.941406 10.667969 C 24.875 10.269531 24.390625 10.40625 24.109375 10.40625 C 21.667969 10.527344 19.417969 11.90625 17.984375 13.847656 C 16.441406 11.746094 13.910156 10.296875 11.261719 10.402344 C 11.207031 10.449219 11.101562 10.539062 11.046875 10.582031 C 10.964844 11.191406 11.042969 11.8125 11.007812 12.421875 C 10.472656 12.640625 9.679688 12.605469 9.425781 13.222656 C 9.527344 13.46875 9.546875 13.730469 9.539062 13.996094 C 9.515625 17.09375 9.558594 20.195312 9.515625 23.292969 C 9.476562 23.527344 9.519531 23.9375 9.855469 23.867188 C 10.9375 23.472656 12.105469 23.332031 13.257812 23.398438 C 14.820312 23.519531 16.445312 23.886719 17.730469 24.820312 C 17.855469 24.820312 18.105469 24.820312 18.226562 24.824219 C 18.9375 24.277344 19.800781 23.980469 20.652344 23.734375 C 22.480469 23.222656 24.453125 23.273438 26.246094 23.886719 C 26.632812 23.820312 26.527344 23.398438 26.53125 23.121094 C 26.515625 20.085938 26.527344 17.050781 26.523438 14.011719 Z M 10.191406 23.027344 C 10.199219 19.828125 10.1875 16.625 10.195312 13.421875 C 10.46875 13.324219 10.742188 13.226562 11.019531 13.132812 C 11.011719 15.6875 11.015625 18.246094 11.019531 20.800781 C 10.980469 21.265625 11.5625 21.183594 11.867188 21.214844 C 13.675781 21.289062 15.324219 22.210938 16.636719 23.40625 C 14.609375 22.585938 12.296875 22.398438 10.191406 23.027344 Z M 19.023438 23.566406 C 20.027344 22.585938 21.183594 21.707031 22.558594 21.328125 C 23.269531 21.085938 24.019531 21.066406 24.753906 20.996094 C 24.992188 20.964844 24.941406 20.667969 24.960938 20.5 C 24.957031 18.054688 24.957031 15.613281 24.957031 13.167969 C 25.253906 13.253906 25.550781 13.34375 25.847656 13.433594 C 25.886719 16.632812 25.847656 19.835938 25.867188 23.035156 C 23.617188 22.414062 21.160156 22.636719 19.023438 23.566406 Z M 19.023438 23.566406 " fill-opacity="1" fill-rule="nonzero"/></g></svg>